<?xml version="1.0" encoding="utf-8"?>
<!-- Generator: Adobe Illustrator 27.2.0, SVG Export Plug-In . SVG Version: 6.00 Build 0)  -->
<svg version="1.1" id="Capa_1" xmlns="http://www.w3.org/2000/svg" xmlns:xlink="http://www.w3.org/1999/xlink" x="0px" y="0px"
	 viewBox="0 0 568.94 395.43" style="enable-background:new 0 0 568.94 395.43;" xml:space="preserve">
<style type="text/css">
	.st0{fill:#4088A2;}
</style>
<g>
	<path class="st0" d="M517.76,358.7c-12.65,5.21-26.37,6.98-39.77,9.16c-5.09,0.83-10.18,1.71-15.26,2.6
		c1.62,1.56,2.43,4.09,2.28,8.19c-0.41,11.91,6.35,16.82,17.94,16.6c14.66-0.28,29.34-0.33,44.01,0.03
		c12.04,0.29,17.31-5.75,17.76-17.11c0.39-9.92,0.54-19.85,1.11-29.76c0.12-2.14,0.26-4.29,0.4-6.44c-0.67,0.68-1.36,1.35-2.08,1.98
		C536.53,350.69,527.06,354.88,517.76,358.7z"/>
	<path class="st0" d="M63.71,369.39c-8.49-1.07-16.87-2.54-25.05-5.14c-6.01-1.92-12.48-4.63-17.92-8.44
		c0.32,7.87,0.64,15.73,0.98,23.6c0.48,11.15,6.39,15.99,17.37,15.85c15.14-0.2,30.29-0.27,45.43,0.16
		c10.66,0.31,16.49-4.87,16.72-14.86c0.07-3.2,0.52-5.63,1.4-7.47c-1.29-0.16-2.57-0.33-3.81-0.48
		C87.16,371.19,75.39,370.87,63.71,369.39z"/>
	<path class="st0" d="M565.9,129.22c-9.99-11.84-22-20.92-37.53-24.03c-13.43-2.69-21.59,2.8-25.51,18.46
		c-11.64-35.11-23.42-67.09-45.94-93.63c-11.94-14.07-25.79-24.6-45.49-25.68C325.91-0.37,240.42-2.4,154.87,4.25
		c-16.28,1.27-29.06,7.38-39.28,19.62c-8.21,9.83-15.39,20.34-21.52,31.63C82.99,75.87,74.6,97.4,66.05,121.87
		c-3.59-13.52-12.09-17.47-22.15-16.26c-18.61,2.23-31.92,13.39-42.09,28.5c-3.83,5.69-1.24,10.09,4.42,12.45
		c4.32,1.8,9.06,2.54,13.57,3.92c10.14,3.11,25.95-1.94,29.72,6.87c3.5,8.18-8.09,18.98-12.34,28.94
		c-6.26,14.66-17.66,27.32-18.1,44.25c-0.69,26.58-0.39,53.17,0.37,79.75c0.28,9.84-2.59,28.28,4,35.33
		c10.72,11.46,32.38,11.63,46.88,13.19c10.59,1.14,39.81,0.7,44.55,0.72c81.2,0.24,162.41,0.2,243.61,0.23
		c57.23,0.02,118.56,8.93,171.55-18.13c18.52-9.45,17.3-22.6,18.47-41.2c0.96-15.21,1.62-30.47,0.9-45.71
		c-1.47-31.21-9.5-61.58-27.85-87.25c-0.82-1.14-1.19-2.59-1.93-3.79c-4.09-6.56-3.12-9.66,5.35-11.01
		c12.08-1.92,24.5-3.04,35.86-8.16C567.84,141.36,572.2,136.69,565.9,129.22z M116.7,258.91c-18.97,2.56-57.91-17.08-67.43-33.43
		c-4.09-7.03-2.8-12.54,3.36-17.25c6.64-5.07,14.22-7.19,21.46-6.82c22.58,0.09,48.66,21.07,54.21,42.47
		C130.99,254.19,125.24,257.75,116.7,258.91z M411.5,262.64c-0.5,19.72-4.29,25.76-21.4,25.96c-28.87,0.34-57.75,0.14-86.62,0.15
		c-40.24,0-80.47,0.06-120.71-0.06c-22.24-0.07-26.57-5-26.67-26.61c-0.05-10.9,3.82-15.27,14.94-15.15
		c37.86,0.39,75.74,0.15,113.61,0.15c35.5-0.02,71.01,0.13,106.51-0.11C402.37,246.89,411.9,246.69,411.5,262.64z M284.99,131.71
		c-62.42,0-124.84,0.04-187.26-0.02c-16.03-0.02-17.13-1.55-12.98-17.45c7.64-29.25,21.22-55.49,40.15-79.06
		c7.19-8.95,15.91-14.31,27.59-15.23c84.97-6.67,169.91-7.09,254.88,0.13c15.98,1.36,28.46,7.32,38.35,20.61
		c16.81,22.58,31.05,46.3,39.07,73.44c4.63,15.65,3.38,17.53-12.55,17.55C409.83,131.75,347.41,131.71,284.99,131.71z
		 M516.93,229.48c-16.47,18.65-38.03,27.49-62.38,29.26c-11.15,0.81-15.86-5.79-13.26-16.07c5.08-20.07,32.02-41.23,52.51-41.24
		c6.75-0.19,13.17,1.08,19.01,4.56C522.89,212.01,524.78,220.59,516.93,229.48z"/>
</g>
</svg>
