<?xml version="1.0" encoding="utf-8"?>
<!-- Generator: Adobe Illustrator 27.2.0, SVG Export Plug-In . SVG Version: 6.00 Build 0)  -->
<svg version="1.1" id="Capa_1" xmlns="http://www.w3.org/2000/svg" xmlns:xlink="http://www.w3.org/1999/xlink" x="0px" y="0px"
	 viewBox="0 0 443.42 646.59" style="enable-background:new 0 0 443.42 646.59;" xml:space="preserve">
<style type="text/css">
	.st0{fill:#4088A2;}
	.st1{fill:#F4F0E6;}
</style>
<g>
	<path class="st0" d="M426.89,310.56c-0.48,1.05-1,2.08-1.5,3.12C399.45,443.05,323.71,619.7,232.97,633.45
		c-0.22,4.23-0.28,8.29-0.19,12.15c-2.23,0.34-4.7,0.6-7.39,0.72c-2.62,0.13-4.81,0.04-7-0.09c-0.07,0-0.14-0.01-0.21-0.01
		c-0.95-0.03-1.94-0.09-2.95-0.17c-2.87-0.22-5.52-0.5-7.91-0.94c-0.17-3.72-0.45-7.87-0.85-12.37
		c-87.66-17.94-160.7-186.51-187.29-313.39c-0.49-1.08-0.99-2.18-1.5-3.32c-0.92-2.05-1.79-4.1-2.63-6.14
		c-6.09-14.78-10.23-29.29-12.61-43.58C18.38,404.9,110.48,646.59,221.71,646.59c111.83,0,204.32-244.27,219.52-382.5
		c-0.5,3.1-1.08,6.18-1.74,9.21C436.7,286.07,432.41,298.57,426.89,310.56z"/>
	<path class="st0" d="M29.96,135.4C64.61,62.5,137.45,12.28,221.71,12.28c84.27,0,157.12,50.24,191.76,123.16
		c1.87-0.02,3.74-0.03,5.6-0.01c0.92,0,1.91-0.02,2.93-0.02c8.15,22.33,13.75,41.11,16.8,56.35c2.82,14.06,4.34,27.61,4.57,40.66
		c0.03-1.53,0.05-3.05,0.05-4.54C443.42,102.02,344.16,0,221.71,0S0,102.02,0,227.87c0,1.79,0.02,3.63,0.06,5.49
		c0.74-33.5,11.09-65.94,29.12-97.95H29.96z"/>
	<path class="st0" d="M221.71,12.28c-84.26,0-157.1,50.22-191.75,123.12h4.85c73.23,2.52,134.31,32.38,166.16,103.81
		c7.15,16.02,12.2,33.97,14.88,50.51c13.58-58.26,53.06-111.18,111.91-137.42c27.89-12.44,57.07-16.56,85.71-16.87
		C378.83,62.52,305.98,12.28,221.71,12.28z"/>
	<path class="st0" d="M133.63,432.13C101,420.18,74.08,401.1,55.62,377c-14.64-19.11-22.13-28.81-30.74-45.77
		c-1.82-3.58-3.7-7.5-5.7-11.9c26.59,126.88,99.62,295.46,187.29,313.39c-3.36-37.37-15.82-100.43-53.74-168.98
		C147.58,454.44,141.18,443.59,133.63,432.13z"/>
	<path class="st0" d="M216.27,446.11c-21.73,0.02-42.37-2.57-61.47-7.44c34.77,60.8,58.09,129.35,64.88,178.56
		c5.85-50.92,28.05-119.95,61.9-181.37C260.64,442.5,238.72,446.09,216.27,446.11z"/>
	<path class="st0" d="M394.78,360.35c-4.84,5.67-9.94,11.08-15.25,16.19c-21.01,20.25-44.96,36.91-70.87,48.84
		c-44,68.34-72.88,153.28-75.69,208.06c90.74-13.74,166.48-190.4,192.43-319.76c-1.3,2.7-2.64,5.38-4.07,8.03
		C413.92,335.5,404.91,348.49,394.78,360.35z"/>
	<path class="st1" d="M2.44,266.29c-1.36-11.8-2.16-22.85-2.38-32.94C-0.18,244.22,0.59,255.19,2.44,266.29z"/>
	<path class="st1" d="M441.23,264.08c1.63-10.2,2.34-20.76,2.15-31.67C443.2,242.13,442.47,252.74,441.23,264.08z"/>
	<path class="st1" d="M221.41,634.3c0.26,4.2,0.37,8.21,0.3,11.97c-1.07,0.01-2.17-0.01-3.32-0.05c2.19,0.13,4.38,0.22,7,0.09
		c2.69-0.12,5.16-0.38,7.39-0.72c-0.1-3.85-0.03-7.91,0.19-12.15c-3.73,0.56-7.48,0.86-11.26,0.86
		C221.61,634.31,221.51,634.3,221.41,634.3z"/>
	<path class="st1" d="M218.32,634.22c-3.98-0.18-7.93-0.69-11.85-1.49c0.4,4.5,0.69,8.65,0.85,12.37c2.39,0.44,5.04,0.72,7.91,0.94
		c1.01,0.08,2,0.14,2.95,0.17C218.09,642.4,218.14,638.39,218.32,634.22z"/>
	<path class="st1" d="M438.8,191.75c-3.05-15.24-8.65-34.02-16.8-56.35c-1.02,0-2.01,0.02-2.93,0.02c-1.86-0.01-3.73-0.01-5.6,0.01
		c13.78,29.01,21.53,61.6,21.53,96.06c0,22.66-3.35,50.96-9.56,81.98l1.45-2.91c5.52-11.99,9.81-24.49,12.59-37.27
		c0.67-3.04,1.25-6.11,1.74-9.21c1.25-11.34,1.97-21.96,2.15-31.67C443.14,219.36,441.63,205.82,438.8,191.75z"/>
	<path class="st1" d="M19,318.44c-6.86-32.96-10.57-63.08-10.57-86.94c0-34.47,7.75-67.07,21.54-96.09h-0.78
		C11.15,167.42,0.8,199.86,0.06,233.36c0.22,10.09,1.02,21.14,2.38,32.94c2.38,14.29,6.52,28.8,12.61,43.58L19,318.44z"/>
	<path class="st1" d="M215.85,289.72c-2.68-16.54-7.73-34.49-14.88-50.51c-31.85-71.43-92.93-101.29-166.16-103.81h-4.85
		c-13.79,29.02-21.54,61.62-21.54,96.09c0,23.87,3.71,53.98,10.57,86.94l5.89,12.79c8.61,16.96,16.1,26.66,30.74,45.77
		c18.46,24.1,45.38,43.18,78.01,55.13c7.55,11.46,13.95,22.31,19.1,31.62c37.91,68.54,50.38,131.61,53.74,168.98
		c3.92,0.8,7.87,1.31,11.85,1.49c0.23-5.39,0.68-11.06,1.37-16.99c-6.79-49.21-30.11-117.76-64.88-178.56
		c19.1,4.87,39.74,7.46,61.47,7.44c22.45-0.02,44.37-3.61,65.31-10.25c-33.85,61.42-56.05,130.45-61.9,181.37
		c0.83,5.99,1.4,11.69,1.73,17.07c0.1,0,0.2,0.01,0.3,0.01c3.78,0,7.53-0.29,11.26-0.86c2.81-54.78,31.7-139.73,75.69-208.06
		c25.91-11.93,49.86-28.59,70.87-48.84c5.31-5.11,10.41-10.52,15.25-16.19c10.13-11.86,19.14-24.85,26.54-38.64l4.12-8.24
		c6.21-31.02,9.56-59.32,9.56-81.98c0-34.46-7.74-67.05-21.53-96.06c-28.64,0.31-57.82,4.43-85.71,16.87
		C268.91,178.54,229.43,231.46,215.85,289.72z M155.96,309.76c0,0-53.1,0.68-72.44-31.45c-19.34-32.13,2.4-84.91,2.4-84.91
		s40.16,11.31,59.5,43.44C164.76,268.97,155.96,309.76,155.96,309.76z M243.49,345.43c-2.26,25.69-26.19,44.78-26.19,44.78
		s-28.43-22.86-26.18-48.55c2.09-23.81,25.56-45.46,25.56-45.46C220.4,299.64,245.56,321.89,243.49,345.43z M353.85,278.31
		c-19.34,32.13-72.44,31.45-72.44,31.45s-8.8-40.79,10.54-72.92c19.34-32.13,59.5-43.44,59.5-43.44S373.19,246.18,353.85,278.31z"/>
	<path class="st1" d="M15.05,309.87c0.84,2.04,1.71,4.09,2.63,6.14c0.51,1.14,1.01,2.24,1.5,3.32c-0.06-0.3-0.13-0.6-0.19-0.9
		L15.05,309.87z"/>
	<path class="st1" d="M19,318.44c0.06,0.3,0.13,0.6,0.19,0.9c2,4.39,3.88,8.32,5.7,11.9L19,318.44z"/>
	<path class="st1" d="M221.41,634.3c-1.03,0-2.06-0.03-3.09-0.08c-0.18,4.17-0.23,8.18-0.13,11.99c0.07,0,0.14,0.01,0.21,0.01
		c1.15,0.04,2.25,0.06,3.32,0.05C221.78,642.51,221.67,638.5,221.41,634.3z"/>
	<path class="st1" d="M219.68,617.23c-0.68,5.93-1.13,11.59-1.37,16.99c1.03,0.05,2.06,0.08,3.09,0.08
		C221.08,628.93,220.51,623.23,219.68,617.23z"/>
	<path class="st1" d="M426.89,310.56l-1.45,2.91c-0.01,0.07-0.03,0.14-0.04,0.21C425.9,312.65,426.41,311.61,426.89,310.56z"/>
	<path class="st1" d="M425.4,313.69c0.01-0.07,0.03-0.14,0.04-0.21l-4.12,8.24C422.75,319.07,424.1,316.39,425.4,313.69z"/>
	<path class="st0" d="M216.68,296.2c0,0-23.47,21.65-25.56,45.46c-2.26,25.69,26.18,48.55,26.18,48.55s23.94-19.09,26.19-44.78
		C245.56,321.89,220.4,299.64,216.68,296.2z"/>
	<path class="st0" d="M291.95,236.84c-19.34,32.13-10.54,72.92-10.54,72.92s53.1,0.68,72.44-31.45c19.34-32.13-2.4-84.91-2.4-84.91
		S311.29,204.71,291.95,236.84z"/>
	<path class="st0" d="M85.91,193.39c0,0-21.74,52.78-2.4,84.91c19.34,32.13,72.44,31.45,72.44,31.45s8.8-40.79-10.54-72.92
		C126.07,204.71,85.91,193.39,85.91,193.39z"/>
</g>
</svg>
