<?xml version="1.0" encoding="utf-8"?>
<!-- Generator: Adobe Illustrator 27.2.0, SVG Export Plug-In . SVG Version: 6.00 Build 0)  -->
<svg version="1.1" id="Capa_1" xmlns="http://www.w3.org/2000/svg" xmlns:xlink="http://www.w3.org/1999/xlink" x="0px" y="0px"
	 viewBox="0 0 470.65 859.77" style="enable-background:new 0 0 470.65 859.77;" xml:space="preserve">
<style type="text/css">
	.st0{fill:#4088A2;}
</style>
<g>
	<path class="st0" d="M447.66,112c-3.28-1.69-6.5-3.49-10.3-5.54c1.95-4.25,3.8-8.04,5.45-11.9c4.07-9.49,5.05-20.38-2.11-27.28
		c-10.82-10.41-7.37-19.06-1.04-28.92c0.57-0.89,0.97-1.91,1.38-2.9c5.44-13.19,0.21-25.02-14.16-32.02
		c-13.84-6.74-26.3-3.48-33.16,8.85c-2.47,4.43-4.76,8.99-6.76,13.65c-1.95,4.55-4.48,6.11-9.82,5.34
		c-15.17-2.19-25.57,3.69-32.81,17.39c-0.75,1.42-1.48,2.85-2.2,4.28c-45.14,90.73-90.27,181.45-135.41,272.19
		c-9.5,19.1-18.99,38.22-28.8,57.97c32.61,16.24,64.59,32.16,97.26,48.43c50.37-101.19,100.37-201.61,150.29-301.91
		c18.31,6.01,25.12,12.29,15.14,31.82c-31,60.71-60.99,121.94-91.35,182.98c-5.72,11.49-11.55,22.92-16.95,34.56
		c-2.84,6.13-1.09,11.7,4.56,15.43c5.4,3.57,10.85,2.73,15.29-1.85c1.98-2.05,3.27-4.85,4.57-7.46
		c14.94-29.9,29.82-59.83,44.71-89.75c21.44-43.08,42.96-86.13,64.29-129.27C476.48,144.39,469.23,123.14,447.66,112z"/>
	<path class="st0" d="M171.19,416.41c-31.24,62.71-62.6,125.35-93.65,188.16c-18.23,36.88-38.27,72.97-50.76,112.46
		c-4.85,15.34-4.93,15.33,9.54,22.54c17.91,8.93,35.83,17.84,54.07,26.91c1.98-2.57,3.8-4.53,5.16-6.77
		c12.22-20.08,25.7-39.55,36.3-60.46c40.51-79.89,80.09-160.24,120.01-240.43c1.25-2.51,2.33-5.09,3.66-8.02
		c-27.61-13.73-54.28-26.98-81.23-40.38C172.89,413.13,172.01,414.76,171.19,416.41z"/>
	<path class="st0" d="M0.04,853.49c-0.3,1.94,1.29,4.18,2.01,6.28c2.01-1.05,4.48-1.65,5.96-3.21
		c22.52-23.59,44.92-47.29,67.31-71.01c0.81-0.85,1.22-2.08,2.09-3.62c-20.12-10.02-39.66-19.75-61.24-30.49
		C10.57,786.59,5.19,820.02,0.04,853.49z"/>
</g>
</svg>
